<svg width="64" height="64" viewBox="0 0 64 64" fill="none" xmlns="http://www.w3.org/2000/svg">
<g clip-path="url(#clip0_13_2)">
<rect width="64" height="64" rx="17" fill="white"/>
<path d="M-19.4783 32V83.4783H32H83.4783V32V-19.4783H32H-19.4783V32ZM64.8267 34.3072V65.5728H32H-0.826726V32V-2.19947H29.7786H64.8267V34.3072Z" fill="#03DAC5"/>
<path d="M-1.11768 32V66.5762H32H65.1177V32V-2.57623H32H-1.11768V32ZM35.6464 7.88243C40.88 8.38864 44.3891 9.4611 46.7571 11.28C47.4178 11.7948 48.6446 13.0817 49.0136 13.6652C50.1204 15.3983 50.618 17.3458 50.618 19.9798C50.618 22.202 50.0946 24.2354 48.9707 26.3374C47.9754 28.2078 46.5855 29.6148 44.8953 30.4385C44.2261 30.7731 44.2776 30.9104 45.187 31.1849C46.903 31.7083 48.6447 32.8322 50.1032 34.368C50.8496 35.1487 51.3473 35.8694 51.8191 36.8647C53.0718 39.4815 53.2691 43.7628 52.2739 46.9716C51.9736 47.9582 51.2014 49.4769 50.6008 50.3005C49.7 51.5102 48.1642 52.9087 46.7314 53.8182C44.7838 55.0622 41.8066 56.1004 38.8209 56.5809C36.4872 56.9584 36.144 56.9669 24.9475 56.9669H14.24V32.3346V7.70226L24.4327 7.74516C31.1506 7.7709 34.9686 7.8138 35.6464 7.88243Z" fill="#03DAC5"/>
<path d="M27.2811 22.3907V27.0238H29.3231C33.836 27.0238 35.2517 26.7063 36.5558 25.4022C37.4738 24.4842 37.8685 23.4375 37.8685 21.9618C37.8513 19.3793 36.3756 18.118 33.0553 17.8435C32.4633 17.8006 30.9189 17.7577 29.632 17.7577H27.2811V22.3907Z" fill="#03DAC5"/>
<path d="M27.2811 41.7723V47.0145H29.7521C33.9047 47.0145 35.389 46.8686 36.899 46.311C38.5463 45.7018 39.593 44.5693 40.0134 42.9306C40.185 42.2785 40.185 40.9915 40.0306 40.2537C39.7217 38.8123 38.8123 37.7913 37.3709 37.2594C35.8265 36.6931 35.1144 36.6159 30.9532 36.573L27.2811 36.5301V41.7723Z" fill="#03DAC5"/>
</g>
<defs>
<clipPath id="clip0_13_2">
<rect width="64" height="64" rx="17" fill="white"/>
</clipPath>
</defs>
</svg>
