<svg viewBox="0 0 519 519" xmlns="http://www.w3.org/2000/svg"><defs><radialGradient cx="50%" cy="21.931%" fx="50%" fy="21.931%" id="a" r="87.888%"><stop offset="0%" stop-color="#f54767" class="stop-color-f25674"></stop><stop offset="100%" stop-color="#e30707" class="stop-color-d82d4e"></stop></radialGradient></defs><g fill="none" fill-rule="evenodd"><circle cx="259.5" cy="259.5" fill="url(#a)" r="259.5" class="fillurl(-a)"></circle><path d="M258 408a11.42 11.42 0 0 1-6.948-2.354c-59.053-37.548-98.357-70.342-117.914-98.38l-1.697-2.444-1.241-1.806C116.74 283.36 101 257.278 101 231.47 101 182.057 140.746 142 189.775 142c27.148 0 51.45 12.282 67.734 31.633l.49.588C274.285 154.531 298.804 142 326.226 142c49.03 0 88.775 40.057 88.775 89.469 0 26.34-16.397 52.966-30.029 72.755l-.412.598-1.697 2.443c-19.557 28.04-58.861 60.833-117.914 98.38A11.419 11.419 0 0 1 258 408Z" fill="#ffffff" class="fill-ffffff"></path></g></svg>