<svg width="143" height="58" viewBox="0 0 143 58" fill="none" xmlns="http://www.w3.org/2000/svg">
<path d="M27.5752 0.281368C25.31 0.907536 23.6525 2.21512 22.7501 4.13045C21.7187 6.32204 21.7187 6.32204 21.7187 18.8822C21.7187 31.424 21.7003 31.203 22.7317 33.413C23.2842 34.5732 24.647 35.9361 25.8441 36.5622C26.8938 37.0779 29.0854 37.5751 30.393 37.5751C31.6085 37.5751 33.9106 37.0595 34.8867 36.5622C36.7099 35.6414 38.0359 33.8365 38.6621 31.4424C39.0488 29.969 39.0672 7.66645 38.6805 6.08262C37.9438 3.04387 36.0285 1.03645 33.1371 0.281368C31.7927 -0.0685501 28.8828 -0.0685501 27.5752 0.281368ZM31.9032 5.47487C32.2715 5.65904 32.6767 6.0642 32.9161 6.52462C33.3212 7.27971 33.3212 7.27971 33.3212 18.698C33.3212 29.748 33.3028 30.1348 32.9529 30.8346C32.382 31.958 31.7558 32.3264 30.3746 32.3264C29.0486 32.3264 28.4224 31.9949 27.7962 30.9267C27.4463 30.319 27.4279 29.9138 27.3727 19.048C27.3358 8.62412 27.3542 7.7217 27.6489 6.91137C28.2935 5.1802 30.0062 4.60929 31.9032 5.47487Z" fill="#03DAC5"/>
<path d="M128.996 0.33662C126.196 1.20221 124.742 2.67554 123.692 5.71429C123.452 6.41412 123.397 8.21896 123.342 17.5562C123.25 29.1219 123.342 30.8162 124.023 32.6763C124.797 34.739 126.694 36.4701 128.904 37.1147C131.261 37.833 134.3 37.5935 136.455 36.5438C137.689 35.936 139.125 34.4443 139.678 33.2104C140.58 31.1845 140.598 30.7425 140.598 18.6428C140.58 6.43254 140.58 6.24837 139.622 4.16729C139.088 3.00704 137.633 1.47845 136.528 0.925953C134.705 -0.013298 131.077 -0.289547 128.996 0.33662ZM132.79 5.18021C133.305 5.30912 133.784 5.60379 134.134 5.99054C135.036 7.02187 135.092 7.97954 135.036 19.5268C134.981 29.214 134.963 29.9875 134.631 30.7241C133.968 32.2343 132.256 32.8236 130.598 32.087C129.014 31.3871 129.088 32.0685 129.033 19.0664C128.996 9.04771 129.014 7.55596 129.272 6.89296C129.622 5.97212 130.027 5.58537 130.966 5.23545C131.832 4.94079 131.795 4.94079 132.79 5.18021Z" fill="#03DAC5"/>
<path d="M1.03683 18.7164L1.09208 36.8569L6.45134 36.8385C12.1237 36.82 12.934 36.728 14.7204 35.8992C15.8254 35.3835 17.0778 34.1496 17.6303 33.0446C18.4774 31.3319 18.5879 30.54 18.5879 26.5251C18.5879 22.9707 18.5695 22.676 18.1275 21.479C17.6118 20.024 16.4516 18.6059 15.3466 18.035C14.9414 17.8324 14.6283 17.6115 14.6283 17.5378C14.6283 17.4641 14.9598 17.2063 15.365 16.9484C16.3043 16.3775 17.354 14.8674 17.7039 13.5966C17.8697 13.0625 18.0354 11.626 18.0723 10.4105C18.2748 5.69586 17.0593 2.76761 14.3889 1.51528C12.6946 0.723362 11.2765 0.55761 5.95409 0.55761H1L1.03683 18.7164ZM11.2581 6.22995C12.1789 6.89295 12.4736 8.03478 12.3815 10.8341C12.3447 12.7679 12.271 13.2835 11.9579 13.7992C11.2949 14.941 10.7424 15.1804 8.80867 15.2909C7.851 15.3462 6.98542 15.3462 6.89334 15.3278C6.78284 15.2909 6.70917 13.4493 6.70917 10.4658V5.67744L8.69817 5.75111C10.3925 5.80636 10.7424 5.86161 11.2581 6.22995ZM11.1476 20.8712C12.6762 21.4974 13.0261 22.7497 12.934 26.9855C12.8788 30.319 12.6946 30.8715 11.5159 31.424C10.8345 31.7555 7.99834 31.9949 7.188 31.7923L6.70917 31.6818V26.1752C6.70917 21.9394 6.76442 20.6318 6.94859 20.5581C7.35375 20.3555 10.503 20.5949 11.1476 20.8712Z" fill="#03DAC5"/>
<path d="M42.99 18.6612C42.99 28.6246 43.0268 36.8201 43.0637 36.8569C43.1005 36.8937 44.3897 36.9121 45.9182 36.8753L48.6992 36.8201L48.736 29.1403L48.7912 21.4606L50.4119 21.4974C54.0584 21.5895 54.4083 22.3998 54.4083 30.8162C54.4083 33.4314 54.5004 35.7519 54.5925 36.1386L54.7951 36.8201L57.576 36.8753C59.4361 36.9121 60.3753 36.8569 60.4306 36.728C60.4674 36.6175 60.4122 36.286 60.2832 35.9913C60.1543 35.6414 60.0254 33.2472 59.9333 29.2876C59.8412 25.3465 59.7123 22.8602 59.565 22.3814C59.0493 20.7239 58.1285 19.5452 56.8025 18.8822L56.1579 18.5507L56.6183 18.2561C59.0493 16.6906 59.9149 14.6096 59.9333 10.4106C59.9333 6.41414 59.3624 4.25939 57.9075 2.76764C56.1027 0.925972 54.4636 0.55764 47.852 0.55764H42.99V18.6612ZM52.7508 6.04581C53.9111 6.61672 54.1137 7.27972 54.1873 10.4106C54.2426 12.1786 54.1873 13.4677 54.04 14.0018C53.7269 15.1436 52.8797 15.9356 51.6827 16.1934C50.5592 16.4328 49.2701 16.4512 48.9202 16.2486C48.736 16.1197 48.6071 11.1656 48.6992 6.21156V5.71431H50.4119C51.6642 5.71431 52.272 5.80639 52.7508 6.04581Z" fill="#03DAC5"/>
<path d="M64.0218 18.698L64.0771 36.8385H71.8121H79.5471V34.3522V31.8476L74.9245 31.866C72.383 31.866 70.173 31.8291 70.0073 31.7555C69.731 31.645 69.6942 31.0925 69.6942 26.1568C69.6942 21.3316 69.731 20.6502 69.9888 20.5581C70.1546 20.5029 71.9226 20.4476 73.9484 20.4476H77.6133V17.9798C77.6133 15.825 77.5765 15.4935 77.3003 15.4015C77.1161 15.3278 75.4402 15.2725 73.5617 15.291C71.6832 15.3094 70.0441 15.3094 69.9336 15.3094C69.7494 15.291 69.6942 14.2044 69.6942 10.5026V5.71429H74.6667H79.6392V3.13596V0.557625H71.8121H63.985L64.0218 18.698Z" fill="#03DAC5"/>
<path d="M82.991 18.698L83.0462 36.8569L88.2213 36.8385C93.7832 36.82 94.6303 36.728 96.3615 35.844C97.4849 35.2546 98.6636 34.076 99.1793 33.0078C100.119 30.982 100.137 30.9635 100.211 20.4108C100.303 9.78438 100.174 7.0403 99.5292 5.30913C98.7557 3.24646 97.3192 1.86522 95.0908 1.0733C93.9858 0.68655 93.5806 0.649715 88.4239 0.594467L82.9542 0.520798L82.991 18.698ZM93.0833 6.06421C93.4333 6.24838 93.8937 6.69038 94.0963 7.02188C94.4462 7.62963 94.4646 8.0348 94.5198 18.2929C94.5567 25.3833 94.5014 29.1587 94.3725 29.656C94.0778 30.7794 93.4148 31.4424 92.3283 31.6634C91.3338 31.8844 89.4184 31.9396 88.958 31.7555C88.7002 31.645 88.6633 30.3374 88.6633 18.6796V5.7143H90.5603C92.052 5.7143 92.5861 5.78796 93.0833 6.06421Z" fill="#03DAC5"/>
<path d="M113.71 18.6612C113.71 28.6246 113.747 36.8201 113.784 36.8569C113.82 36.8937 115.091 36.9121 116.601 36.8753L119.327 36.8201L119.272 18.6981L119.235 0.55764H116.472H113.71V18.6612Z" fill="#03DAC5"/>
<path d="M103.949 34.1681V36.8385H106.62H109.29V34.1681V31.4976H106.62H103.949V34.1681Z" fill="#03DAC5"/>
<path d="M6.51 46.988C7.06067 47.0907 7.51333 47.366 7.868 47.814C8.22267 48.262 8.4 48.7753 8.4 49.354C8.4 49.8767 8.26933 50.3387 8.008 50.74C7.756 51.132 7.38733 51.44 6.902 51.664C6.41667 51.888 5.84267 52 5.18 52H0.966V42.228H4.998C5.66067 42.228 6.23 42.3353 6.706 42.55C7.19133 42.7647 7.55533 43.0633 7.798 43.446C8.05 43.8287 8.176 44.2627 8.176 44.748C8.176 45.3173 8.022 45.7933 7.714 46.176C7.41533 46.5587 7.014 46.8293 6.51 46.988ZM2.926 46.26H4.718C5.18467 46.26 5.544 46.1573 5.796 45.952C6.048 45.7373 6.174 45.434 6.174 45.042C6.174 44.65 6.048 44.3467 5.796 44.132C5.544 43.9173 5.18467 43.81 4.718 43.81H2.926V46.26ZM4.9 50.404C5.376 50.404 5.74467 50.292 6.006 50.068C6.27667 49.844 6.412 49.5267 6.412 49.116C6.412 48.696 6.272 48.3693 5.992 48.136C5.712 47.8933 5.334 47.772 4.858 47.772H2.926V50.404H4.9ZM13.4061 52.126C12.6594 52.126 11.9874 51.9627 11.3901 51.636C10.7928 51.3 10.3214 50.8287 9.97609 50.222C9.64009 49.6153 9.47209 48.9153 9.47209 48.122C9.47209 47.3287 9.64476 46.6287 9.99009 46.022C10.3448 45.4153 10.8254 44.9487 11.4321 44.622C12.0388 44.286 12.7154 44.118 13.4621 44.118C14.2088 44.118 14.8854 44.286 15.4921 44.622C16.0988 44.9487 16.5748 45.4153 16.9201 46.022C17.2748 46.6287 17.4521 47.3287 17.4521 48.122C17.4521 48.9153 17.2701 49.6153 16.9061 50.222C16.5514 50.8287 16.0661 51.3 15.4501 51.636C14.8434 51.9627 14.1621 52.126 13.4061 52.126ZM13.4061 50.418C13.7608 50.418 14.0921 50.334 14.4001 50.166C14.7174 49.9887 14.9694 49.7273 15.1561 49.382C15.3428 49.0367 15.4361 48.6167 15.4361 48.122C15.4361 47.3847 15.2401 46.82 14.8481 46.428C14.4654 46.0267 13.9941 45.826 13.4341 45.826C12.8741 45.826 12.4028 46.0267 12.0201 46.428C11.6468 46.82 11.4601 47.3847 11.4601 48.122C11.4601 48.8593 11.6421 49.4287 12.0061 49.83C12.3794 50.222 12.8461 50.418 13.4061 50.418ZM20.8498 45.448C21.1018 45.0373 21.4285 44.7153 21.8298 44.482C22.2405 44.2487 22.7072 44.132 23.2298 44.132V46.19H22.7118C22.0958 46.19 21.6292 46.3347 21.3118 46.624C21.0038 46.9133 20.8498 47.4173 20.8498 48.136V52H18.8898V44.244H20.8498V45.448ZM31.76 47.954C31.76 48.234 31.7413 48.486 31.704 48.71H26.034C26.0807 49.27 26.2767 49.7087 26.622 50.026C26.9673 50.3433 27.392 50.502 27.896 50.502C28.624 50.502 29.142 50.1893 29.45 49.564H31.564C31.34 50.3107 30.9107 50.9267 30.276 51.412C29.6413 51.888 28.862 52.126 27.938 52.126C27.1913 52.126 26.5193 51.9627 25.922 51.636C25.334 51.3 24.872 50.8287 24.536 50.222C24.2093 49.6153 24.046 48.9153 24.046 48.122C24.046 47.3193 24.2093 46.6147 24.536 46.008C24.8627 45.4013 25.32 44.9347 25.908 44.608C26.496 44.2813 27.1727 44.118 27.938 44.118C28.6753 44.118 29.3333 44.2767 29.912 44.594C30.5 44.9113 30.9527 45.364 31.27 45.952C31.5967 46.5307 31.76 47.198 31.76 47.954ZM29.73 47.394C29.7207 46.89 29.5387 46.4887 29.184 46.19C28.8293 45.882 28.3953 45.728 27.882 45.728C27.3967 45.728 26.986 45.8773 26.65 46.176C26.3233 46.4653 26.1227 46.8713 26.048 47.394H29.73ZM32.6866 48.094C32.6866 47.31 32.8406 46.6147 33.1486 46.008C33.4659 45.4013 33.8953 44.9347 34.4366 44.608C34.9779 44.2813 35.5799 44.118 36.2426 44.118C36.7466 44.118 37.2273 44.23 37.6846 44.454C38.1419 44.6687 38.5059 44.958 38.7766 45.322V41.64H40.7646V52H38.7766V50.852C38.5339 51.2347 38.1933 51.5427 37.7546 51.776C37.3159 52.0093 36.8073 52.126 36.2286 52.126C35.5753 52.126 34.9779 51.958 34.4366 51.622C33.8953 51.286 33.4659 50.8147 33.1486 50.208C32.8406 49.592 32.6866 48.8873 32.6866 48.094ZM38.7906 48.122C38.7906 47.646 38.6973 47.24 38.5106 46.904C38.3239 46.5587 38.0719 46.2973 37.7546 46.12C37.4373 45.9333 37.0966 45.84 36.7326 45.84C36.3686 45.84 36.0326 45.9287 35.7246 46.106C35.4166 46.2833 35.1646 46.5447 34.9686 46.89C34.7819 47.226 34.6886 47.6273 34.6886 48.094C34.6886 48.5607 34.7819 48.9713 34.9686 49.326C35.1646 49.6713 35.4166 49.9373 35.7246 50.124C36.0419 50.3107 36.3779 50.404 36.7326 50.404C37.0966 50.404 37.4373 50.3153 37.7546 50.138C38.0719 49.9513 38.3239 49.69 38.5106 49.354C38.6973 49.0087 38.7906 48.598 38.7906 48.122ZM45.4089 41.892C46.3796 41.892 47.1589 42.158 47.7469 42.69C48.3442 43.2127 48.6429 43.936 48.6429 44.86C48.6429 45.7747 48.3489 46.4747 47.7609 46.96C47.1729 47.436 46.3936 47.674 45.4229 47.674L45.3669 48.752H43.6449L43.5749 46.372H44.2049C45.0169 46.372 45.6422 46.2647 46.0809 46.05C46.5196 45.8353 46.7389 45.4433 46.7389 44.874C46.7389 44.4633 46.6176 44.1367 46.3749 43.894C46.1416 43.6513 45.8196 43.53 45.4089 43.53C44.9796 43.53 44.6436 43.6467 44.4009 43.88C44.1676 44.1133 44.0509 44.4353 44.0509 44.846H42.2029C42.1936 44.2767 42.3149 43.768 42.5669 43.32C42.8189 42.872 43.1876 42.522 43.6729 42.27C44.1676 42.018 44.7462 41.892 45.4089 41.892ZM44.4989 52.098C44.1442 52.098 43.8502 51.9907 43.6169 51.776C43.3929 51.552 43.2809 51.2767 43.2809 50.95C43.2809 50.6233 43.3929 50.3527 43.6169 50.138C43.8502 49.914 44.1442 49.802 44.4989 49.802C44.8442 49.802 45.1289 49.914 45.3529 50.138C45.5769 50.3527 45.6889 50.6233 45.6889 50.95C45.6889 51.2767 45.5769 51.552 45.3529 51.776C45.1289 51.9907 44.8442 52.098 44.4989 52.098ZM58.844 50.446H62.064V52H56.884V42.228H58.844V50.446ZM70.5198 47.954C70.5198 48.234 70.5011 48.486 70.4638 48.71H64.7938C64.8404 49.27 65.0364 49.7087 65.3818 50.026C65.7271 50.3433 66.1518 50.502 66.6558 50.502C67.3838 50.502 67.9018 50.1893 68.2098 49.564H70.3238C70.0998 50.3107 69.6704 50.9267 69.0358 51.412C68.4011 51.888 67.6218 52.126 66.6978 52.126C65.9511 52.126 65.2791 51.9627 64.6818 51.636C64.0938 51.3 63.6318 50.8287 63.2958 50.222C62.9691 49.6153 62.8057 48.9153 62.8057 48.122C62.8057 47.3193 62.9691 46.6147 63.2958 46.008C63.6224 45.4013 64.0798 44.9347 64.6678 44.608C65.2558 44.2813 65.9324 44.118 66.6978 44.118C67.4351 44.118 68.0931 44.2767 68.6718 44.594C69.2598 44.9113 69.7124 45.364 70.0298 45.952C70.3564 46.5307 70.5198 47.198 70.5198 47.954ZM68.4898 47.394C68.4804 46.89 68.2984 46.4887 67.9438 46.19C67.5891 45.882 67.1551 45.728 66.6418 45.728C66.1564 45.728 65.7458 45.8773 65.4098 46.176C65.0831 46.4653 64.8824 46.8713 64.8078 47.394H68.4898ZM74.2324 45.854V49.606C74.2324 49.8673 74.293 50.0587 74.4144 50.18C74.545 50.292 74.7597 50.348 75.0584 50.348H75.9684V52H74.7364C73.0844 52 72.2584 51.1973 72.2584 49.592V45.854H71.3344V44.244H72.2584V42.326H74.2324V44.244H75.9684V45.854H74.2324ZM90.346 44.132C91.298 44.132 92.0634 44.426 92.642 45.014C93.23 45.5927 93.524 46.4047 93.524 47.45V52H91.564V47.716C91.564 47.1093 91.41 46.6473 91.102 46.33C90.794 46.0033 90.374 45.84 89.842 45.84C89.31 45.84 88.8854 46.0033 88.568 46.33C88.26 46.6473 88.106 47.1093 88.106 47.716V52H86.146V47.716C86.146 47.1093 85.992 46.6473 85.684 46.33C85.376 46.0033 84.956 45.84 84.424 45.84C83.8827 45.84 83.4534 46.0033 83.136 46.33C82.828 46.6473 82.674 47.1093 82.674 47.716V52H80.714V44.244H82.674V45.182C82.926 44.8553 83.248 44.5987 83.64 44.412C84.0414 44.2253 84.48 44.132 84.956 44.132C85.5627 44.132 86.104 44.2627 86.58 44.524C87.056 44.776 87.4247 45.14 87.686 45.616C87.938 45.168 88.302 44.8087 88.778 44.538C89.2634 44.2673 89.786 44.132 90.346 44.132ZM102.594 47.954C102.594 48.234 102.575 48.486 102.538 48.71H96.868C96.9146 49.27 97.1106 49.7087 97.456 50.026C97.8013 50.3433 98.226 50.502 98.73 50.502C99.458 50.502 99.976 50.1893 100.284 49.564H102.398C102.174 50.3107 101.745 50.9267 101.11 51.412C100.475 51.888 99.696 52.126 98.772 52.126C98.0253 52.126 97.3533 51.9627 96.756 51.636C96.168 51.3 95.706 50.8287 95.37 50.222C95.0433 49.6153 94.88 48.9153 94.88 48.122C94.88 47.3193 95.0433 46.6147 95.37 46.008C95.6966 45.4013 96.154 44.9347 96.742 44.608C97.33 44.2813 98.0066 44.118 98.772 44.118C99.5093 44.118 100.167 44.2767 100.746 44.594C101.334 44.9113 101.787 45.364 102.104 45.952C102.431 46.5307 102.594 47.198 102.594 47.954ZM100.564 47.394C100.555 46.89 100.373 46.4887 100.018 46.19C99.6633 45.882 99.2293 45.728 98.716 45.728C98.2306 45.728 97.82 45.8773 97.484 46.176C97.1573 46.4653 96.9566 46.8713 96.882 47.394H100.564ZM111.729 44.132C112.317 44.132 112.839 44.2627 113.297 44.524C113.754 44.776 114.109 45.154 114.361 45.658C114.622 46.1527 114.753 46.75 114.753 47.45V52H112.793V47.716C112.793 47.1 112.639 46.6287 112.331 46.302C112.023 45.966 111.603 45.798 111.071 45.798C110.529 45.798 110.1 45.966 109.783 46.302C109.475 46.6287 109.321 47.1 109.321 47.716V52H107.361V41.64H109.321V45.21C109.573 44.874 109.909 44.6127 110.329 44.426C110.749 44.23 111.215 44.132 111.729 44.132ZM123.826 47.954C123.826 48.234 123.808 48.486 123.77 48.71H118.1C118.147 49.27 118.343 49.7087 118.688 50.026C119.034 50.3433 119.458 50.502 119.962 50.502C120.69 50.502 121.208 50.1893 121.516 49.564H123.63C123.406 50.3107 122.977 50.9267 122.342 51.412C121.708 51.888 120.928 52.126 120.004 52.126C119.258 52.126 118.586 51.9627 117.988 51.636C117.4 51.3 116.938 50.8287 116.602 50.222C116.276 49.6153 116.112 48.9153 116.112 48.122C116.112 47.3193 116.276 46.6147 116.602 46.008C116.929 45.4013 117.386 44.9347 117.974 44.608C118.562 44.2813 119.239 44.118 120.004 44.118C120.742 44.118 121.4 44.2767 121.978 44.594C122.566 44.9113 123.019 45.364 123.336 45.952C123.663 46.5307 123.826 47.198 123.826 47.954ZM121.796 47.394C121.787 46.89 121.605 46.4887 121.25 46.19C120.896 45.882 120.462 45.728 119.948 45.728C119.463 45.728 119.052 45.8773 118.716 46.176C118.39 46.4653 118.189 46.8713 118.114 47.394H121.796ZM127.217 41.64V52H125.257V41.64H127.217ZM131.114 45.364C131.366 45.0093 131.711 44.7153 132.15 44.482C132.598 44.2393 133.106 44.118 133.676 44.118C134.338 44.118 134.936 44.2813 135.468 44.608C136.009 44.9347 136.434 45.4013 136.742 46.008C137.059 46.6053 137.218 47.3007 137.218 48.094C137.218 48.8873 137.059 49.592 136.742 50.208C136.434 50.8147 136.009 51.286 135.468 51.622C134.936 51.958 134.338 52.126 133.676 52.126C133.106 52.126 132.602 52.0093 132.164 51.776C131.734 51.5427 131.384 51.2487 131.114 50.894V55.696H129.154V44.244H131.114V45.364ZM135.216 48.094C135.216 47.6273 135.118 47.226 134.922 46.89C134.735 46.5447 134.483 46.2833 134.166 46.106C133.858 45.9287 133.522 45.84 133.158 45.84C132.803 45.84 132.467 45.9333 132.15 46.12C131.842 46.2973 131.59 46.5587 131.394 46.904C131.207 47.2493 131.114 47.6553 131.114 48.122C131.114 48.5887 131.207 48.9947 131.394 49.34C131.59 49.6853 131.842 49.9513 132.15 50.138C132.467 50.3153 132.803 50.404 133.158 50.404C133.522 50.404 133.858 50.3107 134.166 50.124C134.483 49.9373 134.735 49.6713 134.922 49.326C135.118 48.9807 135.216 48.57 135.216 48.094ZM141.176 42.06L140.952 48.822H139.3L139.062 42.06H141.176ZM140.168 52.098C139.813 52.098 139.519 51.9907 139.286 51.776C139.062 51.552 138.95 51.2767 138.95 50.95C138.95 50.6233 139.062 50.3527 139.286 50.138C139.519 49.914 139.813 49.802 140.168 49.802C140.513 49.802 140.798 49.914 141.022 50.138C141.246 50.3527 141.358 50.6233 141.358 50.95C141.358 51.2767 141.246 51.552 141.022 51.776C140.798 51.9907 140.513 52.098 140.168 52.098Z" fill="#BB82FC" fill-opacity="0.97"/>
</svg>
