<svg data-name="Layer 1" viewBox="0 0 512 512" xmlns="http://www.w3.org/2000/svg"><path d="M484.3 46.89a30 30 0 0 0-42.35 0L361 127.81a17 17 0 0 1-11.95 5h-6.9a42.19 42.19 0 0 0 15.67-32.65V80.57a42.45 42.45 0 0 0-84.9 0v19.55a42.18 42.18 0 0 0 15.66 32.65h-65.19a42.18 42.18 0 0 0 15.66-32.65V80.57a42.45 42.45 0 0 0-84.9 0v19.55a42.19 42.19 0 0 0 15.67 32.65h-6.9a17 17 0 0 1-11.95-5L70 46.88a29.94 29.94 0 0 0-42.3 42.34l104 104a42.39 42.39 0 0 1 12.51 30.21v244.48a6 6 0 0 0 11.92 0V223.4a54.25 54.25 0 0 0-16-38.65L36.15 80.79A18 18 0 0 1 61.6 55.32l80.93 80.92a29 29 0 0 0 20.39 8.45h114.87l-26 26a6 6 0 0 0-1.74 4.22v293a6 6 0 1 0 11.92 0V177.39l31.92-31.91c.21-.22.14-.55.32-.79h54.88a29 29 0 0 0 20.39-8.45l80.91-80.91a18 18 0 1 1 25.47 25.46l-103.92 104a54.23 54.23 0 0 0-16 38.66v244.46a6 6 0 0 0 11.92 0V223.4a42.37 42.37 0 0 1 12.53-30.22l103.94-104a30 30 0 0 0-.03-42.29Zm-199.43 53.23V80.57a30.53 30.53 0 0 1 61.06 0v19.55a30.53 30.53 0 0 1-61.06 0Zm-118.8 0V80.57a30.53 30.53 0 0 1 61.06 0v19.55a30.53 30.53 0 0 1-61.06 0Z" fill="#3a99f2" class="fill-000000"></path><path d="M204.71 338.73a6 6 0 0 0-6 6v123.18a6 6 0 1 0 11.92 0V344.69a6 6 0 0 0-5.92-5.96ZM310.58 338.73a6 6 0 0 0-6 6v123.18a6 6 0 0 0 11.92 0V344.69a6 6 0 0 0-5.92-5.96Z" fill="#3a99f2" class="fill-000000"></path></svg>